<svg xmlns="http://www.w3.org/2000/svg" viewBox="0 0 32 32">
  <rect width="32" height="32" rx="6" fill="#0d1117"/>
  <!-- Commit grid (grass) -->
  <rect x="3" y="3" width="5" height="5" rx="1" fill="#22c55e" opacity="0.5"/>
  <rect x="10" y="3" width="5" height="5" rx="1" fill="#4ade80"/>
  <rect x="17" y="3" width="5" height="5" rx="1" fill="#86efac"/>
  <rect x="24" y="3" width="5" height="5" rx="1" fill="#22c55e" opacity="0.7"/>

  <rect x="3" y="10" width="5" height="5" rx="1" fill="#4ade80"/>
  <rect x="10" y="10" width="5" height="5" rx="1" fill="#bbf7d0"/>
  <rect x="17" y="10" width="5" height="5" rx="1" fill="#22c55e" opacity="0.4"/>
  <rect x="24" y="10" width="5" height="5" rx="1" fill="#4ade80"/>

  <!-- Mowed row (brown/cut) -->
  <rect x="3" y="17" width="5" height="5" rx="1" fill="#3a2a15" opacity="0.6"/>
  <rect x="10" y="17" width="5" height="5" rx="1" fill="#3a2a15" opacity="0.6"/>
  <!-- Mower -->
  <rect x="17" y="17" width="7" height="5" rx="1" fill="#e74c3c"/>
  <rect x="25" y="18" width="4" height="3" rx="0.5" fill="#888"/>

  <rect x="3" y="24" width="5" height="5" rx="1" fill="#86efac"/>
  <rect x="10" y="24" width="5" height="5" rx="1" fill="#22c55e" opacity="0.6"/>
  <rect x="17" y="24" width="5" height="5" rx="1" fill="#4ade80"/>
  <rect x="24" y="24" width="5" height="5" rx="1" fill="#bbf7d0"/>
</svg>
